<svg xmlns="http://www.w3.org/2000/svg" version="1.1" xmlns:xlink="http://www.w3.org/1999/xlink" width="655.7" height="577.8"><svg version="1.1" id="SvgjsSvg1012" xmlns="http://www.w3.org/2000/svg" xmlns:xlink="http://www.w3.org/1999/xlink" x="0px" y="0px" viewBox="0 0 655.7 577.8" style="enable-background:new 0 0 655.7 577.8;" xml:space="preserve">
<g>
	<g>
		<g id="SvgjsG1011">
			<g>
				<path d="M639.6,511.7c-2.1-4.5-16-22-16.5-22.5c-11.8-14.3-15.3-26-26.9-40.5c-2.9-3.6-4.5-8.1-7.6-11.6
					c-12.8-14.5-21.5-31.7-31.1-48.1c-10.4-17.6-19.5-35.9-29.5-53.8c-8.1-14.6-16.5-29.1-25-43.5c-9.7-16.4-55.6-99.3-61.5-109.3
					c-2.3-3.7-45.1-75.2-47.4-78.9c-12.5-12.1,20.5,55.4,11.4,41C394.4,127.1,378,90,368.5,71.5c-1.5-2.9-2.5-6.2-3.6-8.9
					c4.9-11.6,4.5-14-3.9-21.7c-3.5-3.2-4.7-6.9-3.4-11.3c1-3.1,2.6-6.1,4.1-9.4c-1.8-3.2-3.6-6.3-5.9-10.4
					c-3.2,4.3-5.6,7.5-8.1,10.8h2.1c-5.9-6-0.5-15.1-8.2-20.6c-7.4,7.4-3.1,14.5-10.9,22.3c-3.5-4.9-6.8-9.5-10.3-14.3
					c-5.2,1.5-10.2,2.9-15.4,4.3c6.3,12.3,12.2,23.8,17.6,34.3c-32.1,52.4-63.4,103.7-94.9,155c-31.7,51.6-64,102.8-95,154.9
					c-30.7,51.7-60.1,104.2-89,154.5c-16.5,5.3-23.9,15.1-25.9,29.6c-5.6,4.7-11.3,9.5-17.8,14.9h23.9c-3.7,7.5-8.7,13.9-3.8,22.2
					c2.8-0.9,5.3-1.7,7.8-2.4c-1.1-2.1-1.8-3.4-2.4-4.5c4-3.5,7.6-6.6,12.5-10.8c6.7-0.6,0.4-1.4,8.7-2.1c8.7-0.8,17.5-0.7,24.8-6.8
					c1.5-1.2,3.9-1.5,5.9-1.7c20.5-1.5,40.9-3.2,61.4-4.1c22.6-1,45.2-1.4,67.8-1.7c17-0.3,34.1-0.6,51.1-0.1
					c33.9,1.1,67.7,3.7,101.6,4.1c50.7,0.7,93.1-2.7,143.8-2.7c8,0,15.9,0.5,23.9,0.8c20.4,0.8,40.9,1.4,61.3,2.4
					c7.5,0.4,15.2,0.7,22.4,2.6c14.7,4,16.8,3,31.9,2.7c-0.9-2.1-29.7-48.4-25.6-48.4c4.2,0,31.9,46,34.8,47.7
					C662.1,553.1,650.3,528.1,639.6,511.7z M394.9,159.8c51.6,97.6,102.9,195.4,153.9,293.3c1.3,2.4-124-220.1-165.2-302
					C387.4,154,392.9,156,394.9,159.8z M308,143.8c3.3,5.8-39.9,75.7-54.3,95.1c-1.2-1.8-36.4,43.4-36.9,42.8
					C221.7,274.1,303.6,150.6,308,143.8z M207.1,303c4.2,0.2-32,65.2-26.6,65.5c-4.9,7.2-37.9,65.8-47.7,67.4
					C133.5,430.2,206.5,309.4,207.1,303z M280.6,517.3c1.4-1.9-29.4-5.1-41-3.9c3.5,1.8,6.2,3.2,11.6,5.9
					c-6.9,1.8-11.1,3.4-15.3,3.9c-3.1,0.3-5.5-1.7-5.8-5.3l-113.5,5.3c3.4-4.8,120.2-9.3,123.2-13.6c18.4,4.4,34.2,1,50.7-6.1
					C288.4,511.4,289.5,513.9,280.6,517.3z M518.2,510.3c-12.2,4.3-12.8-3.8-25.3-4.4c-21.3-1-54.4,2.8-75.7,3.2
					c-11.3,0.2-22.3-2-33.5-1.6c-4.9,0.2-9.7,1-16.7,1.8c-0.4-0.2-2.9-1.5-5.7-2.9c0-7,11.7-1.4,16.1-5.4c0.4,1.1,18.2,1.2,37.1,2.7
					l120.5-6.7c19.6-4.4-131.6-2.9-134.4-7.1c-9.2,0.4-99.2-2-124.7-2c-0.4,0-0.6-5.7-0.9-5.8c-1.3,0-2.9,5.5-4.5,5.3
					c-13.9-1.9-28.2-0.8-42.3-0.6c-21.8,0.3-43.4,3.4-65.3,1.4c-5.7-0.5-12.4-0.8-17.1,1.8c-6.4,3.5-17.5,5.7-23,4.9
					c-2.9-7,8.7-22.1,10.8-27.3c1.8-4.5,9.2-7.1,4.9-13.8c11.6-5.2,12.3-18.6,20.8-26.3c-1.4-3.2-2.5-5.7-4-9
					c7-2.4,13.2-5.7,13.9-13.8l0,0c6.2-5.7,9.9-12.4,8.5-21.2c7.2-5,13-11.1,14.8-20.1c0.2-1.1,0.6-2.6,1.4-3.2
					c10-8.2,92.2-153.3,110.1-185.8c7.7-13.9,14.4-28.3,21.7-42.4c1.7-3.2,12.8-18.8,15.5-22.7c12.4,19.5,21.6,40.9,33.6,58.4
					c15,21.8,28.5,46.9,39.3,70.8c4.2,9.3,123.1,217.8,145.3,259.4C552.7,500.6,525.3,507.8,518.2,510.3z M574.5,440.2
					c-2-0.8-101.7-175.3-100-180.6c3.7,5.5,137.2,227.4,140.2,231.8C612.5,494.1,574.5,440.2,574.5,440.2z"></path>
				<path d="M474.4,219.1C454.9,197.7,386.2,76,375.1,51.9c4.7,3.1,8,7.2,10.8,12C396.8,82.3,466.2,199.7,474.4,219.1z"></path>
			</g>
		</g>
		<g id="SvgjsG1010">
			<g>
				<path d="M337.9,221.8c-12.1-0.1-34.8-0.1-42,12.3c4.5,0.8,9-0.8,13.2-1.6c-3.1,3.1-10.4,1.6-15.2,2.7c-5.2,1.2-9.9,4.3-15,4.8
					c5.9-3.5,12.9-5.6,16.6-11.6c-0.2,0.4-14.5,5.7-16.8,7c-6.5,3.6-13.3,6.6-19.7,10.6c-13.4,8.4-25.7,18.7-36.1,30.6
					c-22.3,25.6-34.7,58.3-33.6,92.3c0.9,27.8,8,70.5,32.6,87.4c-4.6-17.9-20.6-28.8-18.8-48.5c10.1,17.6,18.1,35.8,30.7,52.2
					c8.8,11.5,23,20.5,30.4,32.6c-10.4-1.7-28.4-20.3-36.1-28.5c1.4,1.5,2.2,7.6,4.3,10.2c2.9,3.5,6.8,5.1,10.3,7.5
					c9.2,6.2,18.6,12.3,28.7,17c21.8,10.1,45.8,14.9,69.8,14.9c54.2,0,139.7-33.4,145.3-143.8C486.5,300.7,441,222.5,337.9,221.8z
					 M416.9,450c-3.9,5.4-11.2,12.2-17.8,14.4c-14.9,5-33.3,10.3-49.1,9.5c-8.1-0.4-17-1.7-24.6-4.6c-4.5-1.7-18.2-6.6-21-10.1
					c3,3.7,7.1,7.1,10.5,10.7c-11.3-4.2-22.6-5.1-33.3-12.4c-9.5-6.5-19.9-13.5-27.4-22c-27.5-31.1-38.5-80.5-16.5-117.4
					c3.1-5.2,7.2-9.9,11.3-14.5c2.3-2.6,12.6-9.9,13.2-12.7c0.5-2.9,3.1-5.9,8-9.5c41.8-30.7,103.2-36,143.1,1.2
					c32.7,30.5,42.9,81.3,29.1,123.2C436.8,422.4,427,435.9,416.9,450z"></path>
				<path d="M386.9,357c-11-43.2-65.2-53.7-90-16c-19.5,29.7,10.6,73.9,44.2,72.8C370.2,412.8,394.3,386.3,386.9,357z"></path>
			</g>
		</g>
	</g>
</g>
</svg><style>@media (prefers-color-scheme: light) { :root { filter: none; } }
@media (prefers-color-scheme: dark) { :root { filter: invert(100%); } }
</style></svg>