<?xml version="1.0" encoding="utf-8"?>
<!-- Generator: Adobe Illustrator 25.2.1, SVG Export Plug-In . SVG Version: 6.00 Build 0)  -->
<svg version="1.1" id="Layer_1" xmlns="http://www.w3.org/2000/svg" xmlns:xlink="http://www.w3.org/1999/xlink" x="0px" y="0px"
	 viewBox="0 0 780.6 743.1" style="enable-background:new 0 0 780.6 743.1;" xml:space="preserve">
<style type="text/css">
	.st0{fill:#FFFFFF;}
</style>
<g>
	<g>
		<g id="NaX7qI_1_">
			<g>
				<path class="st0" d="M605.5,342.3c-1.4-3-10.7-14.7-11-15c-7.9-9.6-10.2-17.4-18-27.1c-1.9-2.4-3-5.4-5.1-7.7
					c-8.6-9.7-14.4-21.2-20.8-32.2c-6.9-11.8-13.1-24-19.7-36c-5.4-9.8-11.1-19.5-16.7-29.1c-6.5-11-37.2-66.4-41.1-73.1
					c-1.5-2.5-30.1-50.3-31.7-52.8c-8.3-8.1,13.7,37,7.6,27.5c-7.5-11.7-18.4-36.6-24.8-48.9c-1-2-1.7-4.1-2.4-5.9
					c3.3-7.7,3-9.4-2.6-14.5c-2.3-2.1-3.2-4.6-2.3-7.6c0.7-2.1,1.7-4.1,2.7-6.3c-1.2-2.2-2.4-4.2-3.9-7c-2.1,2.9-3.8,5-5.4,7.2h1.4
					c-4-4-0.3-10.1-5.5-13.8c-4.9,4.9-2.1,9.7-7.3,14.9c-2.3-3.3-4.6-6.3-6.9-9.5c-3.5,1-6.8,1.9-10.3,2.9c4.2,8.2,8.2,15.9,11.8,23
					c-21.5,35-42.4,69.4-63.5,103.7c-21.2,34.5-42.8,68.8-63.5,103.6c-20.6,34.6-40.2,69.7-59.5,103.4c-11.1,3.5-16,10.1-17.3,19.8
					c-3.8,3.1-7.6,6.3-11.9,10h16c-2.5,5-5.8,9.3-2.5,14.9c1.8-0.6,3.6-1.1,5.2-1.6c-0.7-1.4-1.2-2.3-1.6-3c2.7-2.3,5.1-4.4,8.4-7.2
					c4.5-0.4,0.2-0.9,5.8-1.4c5.8-0.5,11.7-0.5,16.6-4.5c1-0.8,2.6-1,4-1.1c13.7-1,27.4-2.1,41.1-2.7c15.1-0.7,30.2-0.9,45.4-1.2
					c11.4-0.2,22.8-0.4,34.2-0.1c22.7,0.7,45.3,2.5,68,2.8c33.9,0.5,62.3-1.8,96.2-1.8c5.3,0,10.7,0.3,16,0.5
					c13.7,0.5,27.3,0.9,41,1.6c5,0.2,10.2,0.5,15,1.8c9.9,2.7,11.2,2,21.3,1.8c-0.6-1.4-19.9-32.4-17.1-32.4
					c2.8,0,21.3,30.8,23.3,31.9C620.6,370,612.7,353.3,605.5,342.3z M441.8,106.9c34.5,65.3,68.8,130.7,102.9,196.2
					c0.8,1.6-82.9-147.3-110.5-202C436.8,103,440.5,104.3,441.8,106.9z M383.7,96.2c2.2,3.9-26.7,50.7-36.3,63.6
					c-0.8-1.2-24.4,29.1-24.7,28.6C326,183.4,380.7,100.8,383.7,96.2z M316.2,202.7c2.8,0.2-21.4,43.6-17.8,43.8
					c-3.3,4.8-25.4,44-31.9,45.1C267,287.8,315.8,207,316.2,202.7z M365.3,346c1-1.3-19.6-3.4-27.5-2.6c2.4,1.2,4.1,2.1,7.7,3.9
					c-4.6,1.2-7.4,2.3-10.3,2.6c-2.1,0.2-3.7-1.1-3.9-3.5l-75.9,3.5c2.3-3.2,80.4-6.2,82.4-9.1c12.3,2.9,22.9,0.7,33.9-4.1
					C370.6,342.1,371.4,343.8,365.3,346z M524.3,341.4c-8.2,2.9-8.6-2.5-16.9-2.9c-14.2-0.7-36.4,1.9-50.6,2.1
					c-7.5,0.1-14.9-1.3-22.4-1c-3.3,0.1-6.5,0.7-11.1,1.2c-0.2-0.1-2-1-3.8-1.9c0-4.7,7.9-0.9,10.8-3.6c0.3,0.8,12.1,0.8,24.8,1.8
					l80.6-4.5c13.1-3-88-2-89.9-4.8c-6.2,0.3-66.4-1.4-83.4-1.3c-0.3,0-0.4-3.8-0.6-3.9c-0.9,0-1.9,3.7-3,3.5
					c-9.3-1.3-18.8-0.5-28.3-0.4c-14.6,0.2-29.1,2.3-43.7,1c-3.8-0.3-8.3-0.5-11.4,1.2c-4.3,2.3-11.7,3.8-15.4,3.3
					c-1.9-4.7,5.8-14.8,7.2-18.2c1.2-3,6.1-4.8,3.3-9.2c7.7-3.5,8.2-12.4,13.9-17.6c-0.9-2.1-1.7-3.8-2.7-6c4.7-1.6,8.8-3.8,9.3-9.2
					l0,0c4.1-3.8,6.6-8.3,5.7-14.2c4.8-3.3,8.7-7.4,9.9-13.5c0.2-0.8,0.4-1.7,1-2.2c6.7-5.5,61.7-102.6,73.7-124.3
					c5.1-9.3,9.6-18.9,14.5-28.4c1.1-2.1,8.6-12.6,10.4-15.2c8.3,13,14.4,27.4,22.5,39.1c10,14.6,19.1,31.4,26.3,47.4
					c2.8,6.2,82.4,145.7,97.2,173.5C547.4,334.9,529,339.7,524.3,341.4z M562,294.5c-1.3-0.5-68-117.3-66.9-120.8
					c2.5,3.7,91.8,152.1,93.8,155C587.4,330.5,562,294.5,562,294.5z"/>
				<path class="st0" d="M495,146.6c-13.1-14.4-59-95.7-66.5-111.9c3.2,2.1,5.4,4.8,7.2,8C443.1,55,489.5,133.6,495,146.6z"/>
			</g>
		</g>
		<g id="gnj1IN_1_">
			<g>
				<path class="st0" d="M403.7,148.4c-8.1-0.1-23.3-0.1-28.1,8.2c3,0.5,6.1-0.5,8.8-1c-2.1,2.1-7,1.1-10.2,1.8
					c-3.5,0.8-6.6,2.9-10.1,3.2c4-2.3,8.6-3.7,11.1-7.7c-0.2,0.3-9.7,3.8-11.3,4.7c-4.4,2.4-8.9,4.4-13.1,7.1
					c-9,5.6-17.2,12.5-24.1,20.5c-14.9,17.1-23.2,39-22.5,61.8c0.6,18.6,5.4,47.1,21.8,58.4c-3.1-11.9-13.8-19.3-12.6-32.5
					c6.8,11.8,12.1,24,20.5,34.9c5.9,7.7,15.4,13.7,20.3,21.8c-7-1.1-19-13.6-24.1-19c0.9,1,1.5,5.1,2.9,6.8c1.9,2.3,4.5,3.4,6.9,5
					c6.2,4.2,12.4,8.2,19.2,11.4c14.6,6.8,30.7,10,46.7,10c36.2,0,93.5-22.4,97.2-96.2C503.1,201.1,472.7,148.8,403.7,148.4z
					 M456.5,301c-2.6,3.6-7.5,8.2-11.9,9.6c-10,3.4-22.3,6.9-32.9,6.3c-5.4-0.3-11.4-1.2-16.4-3.1c-3-1.1-12.2-4.4-14.1-6.8
					c2,2.5,4.7,4.7,7,7.1c-7.5-2.8-15.1-3.4-22.3-8.3c-6.3-4.3-13.3-9-18.3-14.7c-18.4-20.8-25.8-53.8-11.1-78.5
					c2.1-3.5,4.8-6.6,7.6-9.7c1.5-1.7,8.4-6.6,8.8-8.5c0.4-2,2.1-4,5.4-6.4c28-20.6,69-24.1,95.7,0.8c21.9,20.4,28.7,54.4,19.5,82.4
					C469.9,282.6,463.3,291.6,456.5,301z"/>
				<path class="st0" d="M436.5,238.8c-7.3-28.9-43.6-35.9-60.2-10.7c-13.1,19.9,7.1,49.4,29.6,48.7
					C425.3,276.1,441.4,258.4,436.5,238.8z"/>
			</g>
		</g>
	</g>
	<path class="st0" d="M755.3,591.9c8.3,0.3-8.3,5-5.6,9.6c9.7-1.6,13,0.7,12.1,15.4c-2.5,0.1-5-1.5-10.4-1.7
		c-6.3-0.2-9.1,0.1-13.5,0.4c-11.3,0.7-22.6-0.4-33.9,0.6c-13.1,1.2-21.1-1.7-34.4-1.4c-7.9,0.2-19.6-0.4-27.5,0
		c-0.6,0.9,0.6,4.8,0.5,5.5c-1.3,7.4-3.1,19.9-3.9,27.3c-0.5,4.2,0.4,8.6,0.6,12.9c0,0.8,0,1.7-0.1,2.5c-1,6.2-0.4,45,0.5,51.8
		c0.3,2,0.9,4.1,1.6,6c1.5,4.1,3.1,8.2,4.5,11.9c-1.3,2.2-2.3,3.8-3.1,5c-1.8,0.7-3.4,1.2-5.5,2c-0.9-1.7-3.6-24.5-4.9-26.9
		c-1.8,4.9-0.3,26.1-3.7,27.7c-0.6-0.5-9.4-3.8-10.1-4c-2.9-0.8-4-3.3-4.2-5.6c-0.5-5.6-0.6-11.2-0.6-16.8c0-3.5,1-7.1,0.7-10.5
		c-0.7-7.3-0.8-5.5-0.9-12.8c0-6.2,0-12.4,0-18.6c2.2-1.6,5.1-2.6,3.3-5.9c-0.6,0.4-1.2,0.8-2.4,1.4c0.1-14.7,2.7-38.1,0.7-52.8
		c-6.8,0-40.4,1.2-43.5,1.2c-0.6,1.6-1.2,2.5-1.3,3.5c-0.6,7.8-5.2,93.2-4,93.5c3.3,8.2,3.4,8.7,6.9,17.3c-0.5,2.2-1.1,4.7-1.8,7.4
		c-1.5,0.4-3.5,0.9-5.4,1.6c-9.2,3.4-16.6,0.7-21.5-7.4c-3.2-5.4-6.7-10.5-10.1-15.8c-9.3-14.4-16.4-33.5-25.5-48.1
		c-6-9.6-7.6-13.4-13.4-23.6c-0.4,0.1-1.2,0.2-2.2,0.3c-0.2-1.2-0.4-2.6-0.6-4c-0.3-0.3-0.7-0.5-1-0.8c-0.2,0.6-0.4,1.1-0.5,1.7
		c-0.4,2.7-0.4,5.4,1.3,7.8c0.8,1.1,0.9,2.6,1.7,5c-1.3-1.7-2-2.5-2.8-3.6c-2.3,2.8-2.3,19.3-0.5,20.7c2.7,2,1.5,3.8,0.7,5.9
		c-0.5,1.3-1.6,2.6-1.6,3.9c0,6.7,2.4,21.1,2.7,27.7c0.2,4.4-5.6,3.7-5.6,22.5c-0.7-0.9-4.9,4.8-5.9,3.4c-2,0.6-4,1.2-6.7,2
		c-3.3-6.6,0-35.8-3.1-43.2c-0.6,6.1-2.4,33.2-3,38.9c-2.9-0.9-2.9-3.4-2.8-5.9c0.2-5.2,0.7-10.5,0.6-15.7
		c-0.2-10.5,1.3-20.9,2.2-31.4c0.8-10,0.7-17.5,0.7-27.6c0-10.1-0.6-20.2-0.6-30.3c0-8.6,0.2-17.2,0.5-25.9c0.1-2,0.7-4,1-5.9
		c0.5-0.1,0.9-0.1,1.4-0.2c0.9,2.1,1.8,4.1,2.8,6.5c1.9-2,3.5-3.7,5.2-5.5c1.5,0.7,2.6,1.2,3.1,1.4c3.5-1.4,6.6-2.6,9-3.5
		c3.2,1.8,5.9,3.4,8.6,4.9c-0.6,2.9-1.1,5.1-1.4,7.4c-0.6,5.4,0.7,10.7,3.6,15c3.8,5.7,6.2,11.8,9,17.9c0.7,1.5,1.2,3.2,2.2,4.5
		c8.9,11.4,30.5,49.2,30.5,48.4c4.5-47,1.5-72,0-73.1c0-4.6,0.6-9.2,0.9-13.8c0.1-2.1,0-4.1,0-7.2c5.1-1.7,10.4-5.1,17-3
		c3.3,1.1,6.8,1.6,8.2-4.1c0.9,2.4,1.5,3.8,2.2,5.6c41.6,2.4,56.9-0.9,63.6-1c3.8,0,82.8-1.6,86.5-1.6c2.9,0,5.8,0.1,8.7,0.3
		C748.2,590,741.5,591.4,755.3,591.9z M650.1,604.4c0,0.5-0.1,1-0.1,1.5c1.8,0.4,3.5,1.2,5.3,1.2c4.8,0.1,5.9,0,10.7-0.2
		c11-0.3,22-0.7,33-1.1c1,0,2-0.3,3-0.4C683.5,603.9,668.6,603.1,650.1,604.4z M738.7,611.9c-12.4-1.7-24.9-1.8-37.3-0.6
		C713.8,612,726.1,615.1,738.7,611.9z M532.2,687c-0.4,5.1-0.2,5.4,7.1,13.9C541.1,697.2,541.1,697.2,532.2,687z M714.8,607.9
		c10.1,0.3,21.7,0.6,31.8,0.9C740.1,605.9,723.2,605.5,714.8,607.9z M546.1,689.6c0.3,0,6.3,6.2,6.6,6.2c0-5.9,4.3-69.3,1-69.3
		c-2,0-2.4,62.6-3.2,63.4C551.8,692.5,545,687.5,546.1,689.6z M694.2,599.2c5.9,3.6,37,1.8,41.8-1
		C730.3,597.9,700.6,599.5,694.2,599.2z M619,626.1c-0.6,5.1-1.5,14.3-1.8,18.3c-0.1,1.2,2.4,16,3.1,17.9
		C622.2,656.6,620.9,632.3,619,626.1z M500.5,635.5c-0.5,4.2,25.1,46.9,27.1,48.8c0.8,0.8,2.2,1.1,3.3,1.6c0.3-0.3,0.5-0.7,0.8-1
		C529.8,682.2,503.1,639.2,500.5,635.5z M628.5,689.9c2.6-3.8,3.7-63.4,1.1-71.4C629.1,622.5,629.1,685.9,628.5,689.9z M478.2,726.4
		c0-6.6,2-38.9,0-40.9C477.8,688.6,475.9,723.7,478.2,726.4z M478.2,614.9c-1.4,2.6-4,73.1-1.6,75.6
		C478.3,688.1,479.6,617.6,478.2,614.9z M440,696.1c-1.1-3-2.1-6-3.2-9c0.3-0.2,0.6-0.3,0.9-0.5c0.7,0.7,1.7,1.3,2,2.1
		c5.6,12.6,11,25.2,16.7,38.1c-0.2,0.1-1,0.3-1.9,0.6c0.1,3.3-1.6,5.9-4.2,8.1c-5.8,1.6-11.4,1-17-0.4c-1.5-0.4-3.1-0.9-4.5-0.7
		c-4.7,0.8-9-0.1-13.5-1.1c-3.3-0.7-6.8-0.4-10.2-0.6c-1.4-0.1-2.7-0.7-4.9-1.3c3.4-2.3,6.3-1.3,9.2-1.1c3,0.2,5.9,0.1,9.5,0.2
		c-1.7-3.3-5.3-1.7-6-3.1c-5,0-9.1,0-13.1,0.1c-2.9,0.1-6.3-0.3-7.1,3.7c-8.6-0.7-17.1,0.3-25.8-0.4c-6.8-0.6-48.6,0-57.6,0.3
		c-2.4,0.1-7.4,0.6-7.3-0.7c3.3-0.2,6.5-0.5,9.8-0.5c3.6,0,57.3-2.5,58-3.5c-0.5-0.3-46.7,1.2-47,1.2c-16.9,1-32.4,0.7-49,1.7
		c-4.3,0.3-16,0.2-20.2,0.7c-4.8,0.6,1.4-6.5-3.3-7.6c-1-0.2-5.6,7.1-7,7.3c-1-1.4-2-2.9-3-4.4c-0.9,0.1-1.8,0.1-3,0.2
		c-0.5-1.1-1-2.2-1.7-3.6c1-1.3,2.1-2.7,3.4-4.4c-0.2-1.4-1-22.1,0.2-24.4c-1-26-0.4-35.7,2-44.2c1.4-4.9,1.3-10.2,1.1-15.4
		c-0.1-3-1.5-6.1-4.7-9c0.4-3.5,1.2-19.6,1.2-23.8c4.3-2.3,0-10.4,4.8-10.4c2.7-0.4,0.4,12,7.5,1.4c1.2-1.6,8.7,0.5,11,2.1
		c1.7-0.3,3.4-0.7,5.1-1.1c1.6-0.3,3.2-1,4.7-0.9c9.4,0.7,14.3,1.4,23-1.5c2.2-0.7,5.2,0.1,7.7,0.4c1.9,0.2,3.8,0.8,5.7,1.3
		c1.8-3.6,3.4-6.7,4.8-9.4c3.9-1.2,7-2.1,10.9-3.3c-0.7,10.1-1.4,19.2-2.1,28.3c-0.2,2.3,0,4.5-0.1,6.8c-0.5,8.4-1.2,16.8-1.6,25.1
		c-0.1,2.5,0.5,5.1,0.8,7.6c0.2,2.5,0.3,5,0.5,7.9c-4.2-2.1-4.2,3.5-7.5,1.8c-4.1-2.5-8.7-2.7-11.6-0.7c-1.6-1.5-3.2-3-5.4-5.1
		c-0.8-4.5-0.8-4.5,1.1-7.6c-2.7-9.4,0.6-18.9-0.2-29c-11.9-1.8-19-0.9-30.7,0.1c-0.6,2.1-1.7,4.5-2,7c-0.9,6.1-1.6,12.3-2,18.4
		c-0.3,4.3,0.1,8.6,0,12.8c-0.1,4.5-0.5,21-0.6,25.5c-0.1,9.5-0.1,18.9-0.2,28.4c-0.8,0-1.3-0.1-2.3-0.1c-0.1,0.9-0.1,1.8-0.2,2.4
		c8.1,0.3,15.9,0.8,23.8,1c11.8,0.3,23.7,0.4,35.7,0.4c4.5,0,9-0.3,13.4-1c2-0.3,4.2-1.6,5.5-3.1c5.7-6.4,10-13.6,12.7-21.6
		c0.7-2.1,1.9-4.1,2.8-6.1c4.3-9.2,8.5-18.5,12.9-27.9c1.9-4,7.1-23.2,8.6-27.4c3.1-8.5,5.8-17.2,8.7-25.9c1.7-5.2,1.6-5.2,7-8.8
		c1.7,0.5,3.6,1.1,5.7,1.8c1.2-1.4,2.4-2.7,3.5-3.9c6.6-2.2,12.3-0.8,16.7,3.8c0.4,2.1,0.1,5.1,1.6,7c3.8,4.9,3.4,10.7,5.3,16
		c0.8,2.4,1.5,4.9,1.8,7.3c0.2,1.5-0.4,3-0.6,4.5c4.7,3.1,0.7,24,3.3,28.1c-4.9-0.1-5.4-3.4-7.2-5.8c-0.2,5.9,3.2,10.9,4.9,16.3
		c1.8,5.7,5.6,10.9,6.9,16.6c1.3,5.6,2.8,10.9,5.7,16C439.2,696.4,439.6,696.2,440,696.1z M416.3,673.6c4.1,1.6,2.6,6.2,7.3,7.9
		c-1.8-6.1-3.9-11.3-7.7-16.4c-1.4,0.1-3,0.2-4.6,0.3c-0.4,1.9-0.8,3.3-1.3,5.4c-0.6-2.2-1-3.8-1.6-5.4c-1.9-5.2-2.8-10.8-7.7-14.8
		c-1.3-1.1-1.6-2.4-1.9-4c-0.8-3.7,0.4-22.7-2.4-25.8c-1.2,2.1-1.3,3-0.7,5.9c-14.8,21.7-25.2,60.7-35.5,83.9
		c2.7,0.4,4.4,0.8,6.2,0.8c5.5,0,11-0.1,16.5-0.1c4.9-0.1,9.8-0.3,14.8-0.2c3.5,0,7.4-0.5,10.3,0.7c4.6,1.9,9.3,1.2,13.9,2
		c1.3,0.2,2.7-0.4,4.5-0.7c-4.3-10.5-8.4-20.6-12.6-30.8c1.4-0.1,2-0.2,3.3-0.3C416.9,679.3,416.6,676.7,416.3,673.6z M367,660.3
		c4.9-3.4,5.6-6.9,5-12.2C369.1,652.3,367.8,655.7,367,660.3z M257.9,623.8c-2.9,5.9-2.3,67.9,0.8,70.1
		C260.3,690.8,258.8,627.9,257.9,623.8z M424.8,700.1c0.9-3.2,0.3-5.3-1.9-7.7c-0.9,1-1.6,1.8-2.4,2.6
		C421.8,696.6,423.1,698.1,424.8,700.1z M428.5,707.7c-0.9,2-1.3,3.6,0.7,5.3C432.1,710.8,431.3,709.4,428.5,707.7z M413.5,658.9
		c-0.1-0.4-0.2-0.9-0.3-1.3c-1.6,0.3-3.3,0.6-5.7,1C410.4,661.4,411.9,660.1,413.5,658.9z M165.6,588.6c3.6-0.5,6.7-0.9,8.4-1.2
		c6.5,0.6,11.8,1.1,17.2,1.7c0.3-0.5,0.5-1,0.8-1.4c1.3,1.3,2.6,2.7,3.5,3.6c-0.9,3.3-1.5,5.6-2.2,8.3c1.8,0.2,2.9,0.3,4.7,0.5
		c-2.6,4.6-5.1,9-7.7,13.5c5.2,14.7,7.4,30.5,11.9,45.7c3.9,13.5,8.6,26.6,12.7,40c1.3,4.4,2.8,8.9,3.3,13.4
		c0.7,5.8,2.7,11,5.7,15.8c0.3,0.5,0.4,1.1,0.8,2.4c-0.9,0.5-2,1.1-3.4,1.9c1.8,2.1,3.2,3.6,4.8,5.4c-0.5,1.3-1.1,2.8-1.7,4.3
		c-5.3,1.2-10.1,0.5-15-0.7c-1.2-4.2-1.9-8.4-6.2-11.2c-1.5,0.9-3,1.8-4.7,2.8c-3.7-2.4-7.7-3-12.4-2.2c-6,1-12.1,0.7-18.2,1
		c-10.5,0.5-20.9,1-31.4,1.6c-6.5,0.4-13,1.1-19.5,1.4c-3,0.1-6.1-0.5-10.6-0.9c0,0-1.3,0.5-2.5,1c-2.9-1.2-5.5-2.2-8.3-3.4
		c-0.4-2-0.9-4.1-1.6-7.2c1.5-5.1,4.1-10.6,8.2-15.6c1.9-2.4,3-5.4,4.4-8.2c4.9-9.4,10.2-18.6,15.7-27.6c0.2-0.3,0.5-0.4,0.9-0.7
		c0.1,1,0.2,2,0.4,3c0.5-0.1,1.1,0,1.2-0.2c3.2-6.8,6.3-13.6,9.4-20.5c0.1-0.2,0.2-0.4,0.2-0.6c0.3-2,0-5.2,1.1-5.8
		c2.6-1.4,2.2-3.8,3.3-5.6c1.1-1.8,2.2-3.6,3-5.5c2.2-5.2,4.3-10.4,6.4-15.6c0.9-2.1,1.9-4.2,2.8-6.3c0.5-1.1,1.7-2.2,1.6-3.3
		c-0.2-3.3,1.4-5.5,4-7.2c0-2.1-0.2-4,0-5.9c0.3-2.6,1.2-4.7,3.7-6.2C162.5,591.8,164,590.1,165.6,588.6z M134.9,712.1
		c2.9-0.1,5.4-0.2,7.9-0.4c2.5-0.2,5.2,0.1,7.4-0.8c6.9-2.6,14.2-2.6,21.3-4.1c4.9-1,9.9-1.7,14.9-2.3c2.9-0.4,5-1.8,6.9-4.3
		c-1.4-3.6-5.1-6.7-4-9.8c-1.3-4-2.1-6.6-2.9-9.3c-0.5-1.6-0.8-3.2-1.2-4.9c-1.8-6.9-3.1-13.9-5.6-20.6c-2.9-7.8-6.8-15.3-10.2-22.9
		c-0.1-0.3-0.7-0.3-1.9-0.7c-1.1,1.7-2.2,3.6-3.4,5.5c-1,1.6-1.6,3.5-2.8,4.8c-6,6.4-9.6,14.3-13.4,22c-2,4-2.7,8.9-7.3,11.4
		c-0.9,0.5-1.1,2.1-1.6,3.3c-2,5.1-3.9,10.1-5.9,15.2c-0.1,0.3-0.5,0.6-0.8,0.8c-0.4-0.4-0.8-0.8-1.5-1.4
		c-3.5,6.5-6.9,12.9-10.7,20.1c5.1,0.3,9.6,0.5,14.3,0.7C134.4,714,134.6,713.3,134.9,712.1z M184,659.8c-0.1,0.4-0.3,0.8-0.2,1.1
		c3.2,8.1,6.6,16.2,8.8,24.7c0.4,1.5,1.6,2.8,3.7,2.2c-1.2-5.3-1-11.1-3.7-15.1C189.9,668.4,190.3,661.7,184,659.8z M133.6,674.5
		c0-2.2,0-5.2,0-9.2c-3.5,5-6.1,9.3-7.1,14.5c-0.1,0.7,0.7,1.6,1.1,2.4C129.7,679.5,131.5,677.3,133.6,674.5z M139.9,662.8
		c2.7-2.7,4.6-5.9,4.8-11C140.4,655,139.8,658.7,139.9,662.8z M122.5,704.1c1.8-4.1,4.8-6.6,3.1-11.9c-1.6,3.8-2.7,6.6-3.8,9.3
		C121.6,701.9,121.9,702.3,122.5,704.1z M117.9,695.1c4.9-3.1,5.8-5.5,4.3-8.6C120.7,689.6,119.3,692.3,117.9,695.1z M199,675.4
		c-0.5-2.7-0.9-4.4-1.2-6C195.8,671.6,195.4,673.3,199,675.4z M39.5,675c-0.7-6.3-1.2-12.1-4.2-17.4c-0.6-1.1-1.1-2.2-1.8-3.2
		c-3.8-5.1-6.8-10.3-7.4-16.8c-0.2-2.4-2-4.5-2.9-6.9c-2.9-7.5-7-14.2-11.4-20.9c-1.4-2.1-2.6-5.7-6.8-4.6c-1.6-2.6-3.2-5-5-7.8
		c2.7-2.6,5.2-5,7.8-7.4c4.8,0,9.9,0,15.6,0c2.4,5.2,4.7,11,7.7,16.4c2.9,5.2,4.4,11.3,9.1,15.6c1.2-0.5,2.1-0.8,3.4-1.4
		c-7.5-9-11.9-19-15.2-30c4.7-1.1,6.5,2.4,7.9,5.3c2.5,5.4,6.6,9.9,8.2,15.9c1.5,5.6,4.1,11,6.2,16.5c0.2,0.4,0.3,0.8,0.6,1.1
		c3.3,5.3,6.6,10.5,10,16c3.5-0.9,3.1-4.6,5.1-7.2c3.7-0.2,5.4-3.2,7.2-6.4c3.4-6,7.2-11.8,11-18.1c0.8,0.5,1.6,1.1,2.7,1.7
		c3.2-3.1,1.8-8,4.2-11.3c2.5-3.6,5.4-7,7.5-10.9c2.1-3.9,5.5-6.1,8.8-8.8c4.7-0.1,9.6,1.8,13-1.5c3.3,0.8,5.8,1.5,8.6,2.2
		c0,1.7,0,3.7,0,5.9c0.9,1,1.9,2,3,3.3c-1.6,2.2-2.9,4.6-4.8,6.5c-3.2,3.3-6.8,6.2-10.2,9.4c-2.3,2.1-4.4,4.4-6.5,6.7
		c-3.2,3.5-6.5,7-9.3,10.8c-2.7,3.7-4.9,7.8-7.4,11.7c-0.2,0.3-0.6,0.6-1.1,1.1c-1.2-0.2-2.5-0.4-4.3-0.7c0.7,1.5,1.3,2.7,2.1,4.4
		c-8.5,13-14.3,27.4-18.1,42.1c-0.1-0.8-0.3-2.3-0.6-3.8c-0.3,0-0.5-0.1-0.8-0.1c-0.4,1.3-1.2,2.6-1.3,3.9
		c-0.7,7.7-1.9,15.5-1.7,23.2c0.2,6.9,0.2,14.4,5.9,19.8c-5.3,2.9-10.3,5.6-15.7,8.5c-7.5-0.7-11.5-4.7-15.1-10.5
		c-1.8-0.5-3.6-1-5.6-1.6c-0.6-2.2-1.3-4.4-1.9-6.6c1.8-3.1,3.6-6.2,4.6-7.9c0.5-4.9,1-8.4,1.2-11.9c0.2-6.3,0.3-12.6,0.1-18.9
		C41.9,678.5,40.3,676.8,39.5,675z M66,679.7c-3.6,0.5-4.7,1.9-4.8,4.7c-0.3,4.6-1.3,9.1-1.2,13.6c0.1,3.5-0.6,7.2,1.2,11.4
		c2-3.7,3.6-6.5,4.9-8.9C66,693.5,66,687,66,679.7z M26.8,605.6c-1.8,2.4-1,3.9,0.1,5.6c3.7,5.6,7.3,11.2,10.7,16.9
		c3,5,5.6,10.3,8.6,15.3c0.8,1.4,1.6,3.4,4.7,3.4C43.1,632.5,35.8,618.7,26.8,605.6z M111.7,610.2c-5,2.8-5,2.8-6.2,6.5
		C108.2,615.3,110.2,613.5,111.7,610.2z M732.8,730.3c-3.2-2.7-2.8-3.2-7.8,1.2c-7.8-1.1-15.6-0.1-23.4,0.2
		c-6.5,0.3-13.4,1.7-19.7-2.6c-1.3-0.9-2.5-2-4.1-3.3c4.3-5.9,0.9-12.3,2.1-18.8c0.8-0.3,2-1,3.1-0.9c6.4,0.2,41.1,2.2,48.9,2.7
		c3.9,6.2-4,2.3,0.8,2.5c-1.1-0.3-2.2-0.6-3.2-0.9c0-0.3,0-0.6,0.1-0.9c3.5,0.2,27.6-0.6,31.1-0.9c3.3-0.3,6.7-0.8,10.3-1.2
		c1.4,1,3.1,2.3,5.1,3.7c0.3,1.8,0.7,3.8,1,6c1.9,1.8,4.4,3.3,3,8c-2.1,1.5-4.5,3.1-7.7,5.3c3.1,0.5,5.3,0.9,8.1,1.3
		c-0.9,2.1-1.6,3.7-2.1,5c-9.2,3.5-18.2,3.2-27.4,1.6c2.1-2,5.1,0.5,7.4-3.4c-8.3-2.5-16.8,1.7-25.2-0.3c1.8-1.8,3.4-1.1,4.9-1.1
		c1.5,0,3,0,5,0c-3.7-2.6-3.7-2.6-6.9-1.8c-0.7,0.2-1.5,0.3-2.2,0.2C729.6,731.5,738.1,730.9,732.8,730.3z M737.6,723.3
		c2.5-0.1,5-0.3,7.1-3c-2.4-1.8-8.7-2.6-10.5-1.3c-0.5,0.3-0.8,1.3-1.1,1.9c-1.4,0.8-2.7,1.5-4,2.2c-2.7-0.5-5.4-1.2-8.1-1.4
		c-2.5-0.2,7.9,0,5.4,0.3c-2.6,0.4-5.3,0.9-7.9,1.8c-2.4,0.8-5.2-0.5-8,3.3c5.8,0.4,10.8-1.1,15.7-0.1c2.1,0.4,4.4,0.6,6.3-0.5
		c2.1-1.2-9.4,1.3-7.2,0.2c1.7-0.9,4.1,1.1,6.2,1c2.5-0.1,5-0.4,7.5,0.5c0.7,0.3,1.7-0.7,2.8-1.3C740,725.6,738.8,724.5,737.6,723.3
		z M770,731.1c-0.9-2.8-1.9-4-4.3-2.6C766.8,730.5,767.7,731.8,770,731.1z M675.2,664.1c2.8-1.9,5.5-3.7,8-5.3
		c0.6-2.8,1.1-5,1.6-7.5c6.3-0.1,12.1,1.7,18,3.4c2.2-1.2,4.5-2,7.4-1.7c9.2,0.9,18.4,1.5,27.6,1.4c7.8-0.1,7.7-1.1,15.5-1.9
		c4-0.4,8.8,2.5,10.5,6.8c1.2,3,2.6,5.9,3.6,9c0.5,1.6,0.5,3.5,0.8,5.5c-2,0.6-3.4,1-5.5,1.7c1.5,1.3,2.7,2.3,3.8,3.2
		c-8.8,0.4-25.1,0.6-33.9,1.2c-5.1,0.4,5.1,1.7,0,2c-8.7,0.5-17.4,0.5-25.9,0.7c1.2-2.3,3.4-2.5,5.8-2.5c4.6,0,9.2-0.3,13.9-0.8
		c-6.4-2-12.8-2.3-19.3-1.4c-3.3,0.4-6.6,0.1-10-1.2c-3.5-1.3-7.6-2.3-11.3,0.6c-1.2,1-1.3,0.8-4.5-0.1c0.2-0.9,0.4-1.9,0.8-3.3
		c-1.5,0.1-2.8,0.3-4.4,0.4C674.8,671.6,673.3,668.4,675.2,664.1z M733.2,669.2c0.3,1.1,0.5,2,0.8,3.1c1.3-0.3,2.4-0.5,3.6-0.8
		c-2.4-5.2-6.6-6.7-14.7-5.5C723.6,669.3,723.6,669.3,733.2,669.2z M740.3,669.4c-0.3,0-0.5-0.4-1.5-1.3c4.1,0-7.9,0-4.6,0
		c0,0.4,0,0.9,0,1.3C731.2,669.5,743.4,669.5,740.3,669.4z M678.5,669.9c0,0.5,0,1,0,1.6c1.7,1.4,3.2,0.5,4.8-1.3
		C681.7,670,680.1,670,678.5,669.9z M435.8,677.4c-1.6-9.9-4.2-15.8-8.5-18.9C429.9,665.7,432,671.9,435.8,677.4z M737.6,723.4
		c-0.8-3.4-2.9-2.5-4.7-2.6C733.8,724.1,736,722.6,737.6,723.4z"/>
	<g>
		<path class="st0" d="M421.1,419c1.6,0.6,3.4,1.2,5.7,2c-3.6,3.1-7.3,3-11.6,2.8C416.3,420.7,418.3,419.6,421.1,419z M422.1,428.8
			c-4.5,3.5-8.5,0.1-11.8,1.9C413.6,428.4,417.2,428.9,422.1,428.8z M403.3,425.4c-4.6,4.1-13.9,2.9-19.1,1.2
			C388.6,422.8,397.8,423.8,403.3,425.4z M471,554.9c0.3-0.2,0.6-0.4,0.9-0.5c-2.3-4-4.6-7.9-6.7-11.5c0.8-1.2,1.7-2.1,1.6-2.6
			c-0.6-2-1.2-4.4-2.6-5.9c-3.8-3.9-8.2-7.3-12.2-11.1c-3-2.8-6.1-5.7-8.7-8.9c-5.4-6.6-10.6-13.4-15.8-20.2
			c15.2-19.1,29.6-37,33.9-41.3c4-3.9,7.7-14.8,8-20.1c-4.4-9-8.7-17.5-12.7-25.7c-2.3,0.6-4,1.6-5.3,1.2
			c-5.2-1.6-10.3-1.7-15.4-0.1c-1,0.3-16.2,3.1-27.6,1.9c-5.7-0.6-23.8,1-23.8,1s-1.8-3.1-2.3-6.1c-2.5-1.7-9-2.3-14.5-1.3
			c-2.7,0.5-3,3.2-3.7,5.8c-0.9,3.4-1,20.7-1.3,32.6c-0.3,11.8-0.3,13.2-0.1,25c0.1,7.7,5.3,27.6,5.7,35.3c-3.7,2-5.3-24.9-6.4-22.4
			c-1.3,3.1-0.5,52.7-0.8,64.6c-0.1,2.9-1,8.9-1,8.9c0.7,0.8,3.3-0.5,4.3,0c1.2,0.6,1.4,2.5,2.6,3.2c2,1.1,4.6-0.5,6.2,0.5
			c1.1,0.7,0.9,2.3,1.5,2.4c3,0.5,4.1-5.4,6.9-5.5c1.8-0.1,0,9.8,2,8.7c2.9-1.5,2.5-11.4,2.4-13.8c-0.1-1.5-0.4-3.1-0.5-4.6
			c5.1-4.9,16.3-18.4,28.6-33.7c0.5,0.7,1,1.5,1.6,2.2c3,3.9,6.2,7.7,9.3,11.5c1.6,1.9,3.3,3.8,4.9,5.8c0.7,0.9,1.1,2.1,1.9,2.9
			c4.7,5,8.7,10.5,11.8,16.7c3,5.9,6.8,11.2,14.6,10.6c1.2-1.8,2.3-3.5,3.3-5c1.8-0.2,3.4-0.4,5.2-0.7c-0.7-1.9-1.2-3.6-1.8-5.3
			c0.3-0.2,0.6-0.3,0.8-0.5C467.5,551,469.3,552.9,471,554.9z M383.4,511c-0.1-1.3-0.2-2.5-0.2-3.8l-0.2-9.9
			c-3.9-4.5-1.2-25.5-1.7-30.2c-0.4-3.5,1.1-29.3,1.4-32.2c4.1-3.1,7.6-4.1,12.9-2.3c5.3,1.8,11.6,1,17.5,0.7
			c7.3-0.3,14.6,0.1,21.8,1c0.7,0.1,8.9,0.3,10.1,1c-5.4,4.1-19.9,22.6-35,42l-4.7-3.2c-1.7-1.8-2.9-3.1-4.4-4.6
			c-0.5,0.3-1,0.7-1.8,1.3c-4.3-4.5-8.5-9.1-12.8-13.6c0,2.2-0.2,4.4-0.4,6.5c0.7,0.2,1.2,0.5,1.4,0.9c2.9,5.8,5.5,11.6,8.3,17.9
			c1,1.9,2.7,4.7,4.5,7.5C394.1,497.7,388.4,505,383.4,511z M421.3,502.5c7.3,3.7,9.8,11,13.3,17.5
			C427.7,516,425.3,508.7,421.3,502.5z"/>
		<path class="st0" d="M599.8,438.9c-2.3-0.6-3-1.7-4.1-3.9c-2,1.2,0.7-5.6,0.3-12c0.9-2.1,1.7-3.8,2.9-6.4c1.9-1.6,4.9,2.6,7.7-1
			c-1-1-4.8-1.9-5.6-2.8c0.2-0.2,3.3-0.5,3.5-0.5c5.1-0.4,10.2-0.8,15.3-1c5-0.2,37.6,0.6,42.6,0.6c2.4,0,4.7,0.1,7-2
			c1.3-1.2-2.1-0.8-0.4-0.8c3-0.1,6-0.1,9,0.1c2,0.1,3.4,1.6,4.1,4.6c0.9,4,0.1,8.5,5.5,8.5c2.5,0,2.2,1.2,1.4,2.7
			c-0.8,1.5-0.6,3.7,0.4,4.8c0.4,0.4,0.7,1,0.7,2c0,2.8-2.9,2.6-3.5,4.4c0.3,0.2,0.8,0.5,1.4,0.7c2,0.8,2.4,4.6,0.7,6.4c0,0,0,0,0,0
			c-0.4,0.4-0.8,0.6-1.3,0.6c-1.1,0-2.6,0.1-4.2-0.1c-6-0.6-12-2-18-1.9c-11.5,0.1-45,1.6-56.5,1.7c-2.6,0-5.2,0.6-7.9,1.1
			c-0.8,0.1-1.5-0.1-2.5-0.2c-1,0-2.7-3.3,0.1-3.3c7.5,0.6,27.2-0.7,21.8-2.9C614.2,438.2,606.5,438.9,599.8,438.9z M663.8,432.6
			c-5.5,0-6.9,3.1-2.6,3.1c4.1,0,2.8,0,6.9,0c0.5,0,13.1,0.3,14,0C677.2,431.3,668.6,435.3,663.8,432.6z"/>
		<path class="st0" d="M336,520.8c2.1,1.8,3.7,2.8,4.8,4.2c1,1.4,1.7,3.1,2.2,4.8c0.6,1.9,0.3,4.3,1.2,5.9c2.1,3.6,2.8,6.8-0.4,10.2
			c-0.6,0.7-0.6,1.9-0.9,2.6c-3.8,2.5-7.3,2.3-11.1,0.8c-2.3-0.9-4.9-1.5-7.3-1.4c-7.7,0.4-15.5-0.4-23.1,1.9c-1.1,0.3-2.3,0-4.9,0
			c2.6-2.2,4.1-3.5,6.3-5.4c-3.1-0.8-5.5-0.4-8.2,0.2c-0.3,1.6-0.5,3.2-0.8,4.8c-0.5,0.2-1,0.6-1.6,0.7c-9.4,1-18.8,1-28.2,0.5
			c-2.7-0.1-5.4,0.2-8.2,0.4c-4.7,0.4-9-0.4-13.2-2.9c-2.8-1.7-4.2-4-3.5-6.7c1.3-5.4,2.1-11.2,6.2-15.3c3.2-0.6,6.2-1.1,10-1.8
			c-1.7-1.5-2.6-2.3-3.7-3.3c5.5-2.7,11.3-2.4,16.9-2.2c9.4,0.3,18.7,1.8,28.2,1c5.6-0.5,11.2,0.7,16.9,0.8
			C321.1,520.9,328.7,520.8,336,520.8z M310.2,534.8c-1.2-2.6-3.2-2.2-5.3-2.1c-10.6,0.8-21.3,1.4-31.9,2.1
			c-1.3,0.1-2.5,0.8-3.7,1.2c0.1,0.4,0.1,0.8,0.2,1.2C282.9,535.9,296.7,539.6,310.2,534.8z M258.8,534.1c2.7,1.1,4.1,0.1,6.4-2.4
			C262.3,532.2,260.2,531.3,258.8,534.1z"/>
		<path class="st0" d="M617.2,497.5c-3.5,1-6.6,2-9.7,2.9c-2.6,0.8-5.2,1.9-7.8,2.3c-2,0.3-4.1-0.5-6.8-0.9c1.4-2.4,2.3-3.9,3.2-5.4
			c-2.3-1.3-2.3-1.3-6.2-0.2c-0.1-1.4-0.4-2.8-0.2-4.1c0.8-5.2,1.7-10.5,2.6-15.8c4.9-0.5,9-1.7,13.3,0.5c1.2,0.6,2.9,0.5,3-2
			c5-0.5,10-1,15.8-1.6c-1,1.9-1.7,3.1-2.3,4.3c0.1,0,0.6,0.1,1.1,0.2c3.3,0.3,6.6-0.3,9.3-2.6c2.3-1.9,4.7-2.1,7.2-1.9
			c9,0.5,28.2,1.1,37.6,1.7c1,4.3,6.9,3.8,7.1,9.1c0.2,4.9,4.3,9.6,0.2,15c1.7,0.6,3.1,1.1,4.5,1.5c-0.2,0.5-0.2,1.1-0.4,1.2
			c-1.9,1-4,1.9-5.9,3c-2.9,1.7-6,0.6-8.3-0.9c-5.7-3.7-13-3.3-19.1-3.4c-1.1,0-11.1,0-12.6,0c-0.8-0.8-1.9-1.9-2.7-2.8
			c-7.5,1.4-14.8,2.7-22.4,4.1C617.5,500.5,617.4,499.6,617.2,497.5z M624.1,491.3c0,0.9,8.5,0.4,16.7,0.5s26.5,0.9,26.5-0.3
			c0-1.5-18.5-1.6-26.8-1.6S624.1,490,624.1,491.3z"/>
		<path class="st0" d="M285.5,471.9c0.3,0.8,0.6,1.5,0.8,2.3c6.6,1.3,13.2,3,20.4-1.1c-5.5-2.4-11,2.3-16-2.2
			c7-0.3,13.5-0.3,19.9-0.8c6.4-0.5,12.8-1.5,19.7-2.4c-0.5,1.9-0.8,3.2-1.2,4.8c1,0.2,1.8,0.3,2.6,0.5c1,4.2,2.1,8.3,3.2,12.9
			c-0.1,2.4-0.3,5.4-0.4,8.7c-1,0.2-2.4,0.5-4.3,1c1.4,1.7,2.5,3,3.9,4.7c-0.8,0.3-1.5,0.7-2.2,0.7c-14.2-0.6-28.5-1.1-42.7-2.1
			c-7.3-0.5-14.5-2.3-21.8-3.3c-4.4-0.6-8.8-0.7-13.2-1.1c-3.3-0.3-6.5-0.9-10.6-1.5c2.1-5.7,5-10.7,1.2-16.1
			c5.6-2.1,9.7-5.4,15.6-3.6c2.8,0.8,6.2-0.5,9.4-0.7c3.9-0.1,7.9,0,11.8,0c-0.1,1-0.2,1.8-0.4,3.8
			C283.2,474.3,284.4,473.1,285.5,471.9z M280.6,483.7c3.8,5.2,7.9,1.2,11.4,1.8C288.7,483.4,285.1,483.2,280.6,483.7z M268.3,486.3
			c4.2,1.6,4.2,1.6,6.5-1C272.4,485.6,270.4,485.9,268.3,486.3z"/>
		<path class="st0" d="M275.9,439c0.7-0.3,1.4-0.6,2.2-0.9c-11.4-2.7-22.2-2.2-32.6-0.4c-3.6-4.5,1.9-6.6,1.6-10.2
			c-0.3-3.1,1.4-6.3,2.3-9.8c6.7,0.3,12.7,0.7,18.7,0.9c1.2,0,2.5-0.3,3.7-0.4c3.6-0.3,7.1-0.7,10.7-0.7c4.4-0.1,8.8,0.9,13-1.3
			c1.2-0.6,2.9-0.3,4.4-0.3c4.2-0.2,8.4-0.5,12.6-0.6c3.9-0.2,7.9-1.5,11.8,0.6c0.8,0.4,2-0.2,3.1-0.2c2.7,0,5.4,0,8.5,0
			c1.8,5.7,3.5,11.1,5.2,16.4c0.2,0.8,0,1.8,0.5,2.4c3.3,4.3,1.7,9.1,1.9,13.8c-2.7,0.6-5-2.7-7.7,0.3c1.5,0.8,2.9,1.5,5,2.7
			c-4.7-0.5-8.8,0.1-11.1-4.4c-0.5-1-2.5-1.3-3.9-1.7c-12.8-3.7-25.8-5.4-39.1-3.2C282.8,442.5,278.5,443.7,275.9,439z M299.8,437.2
			c6.4,3.6,8.9,3.9,14.5,1.4C309.2,438.1,305.2,437.7,299.8,437.2z M298.4,432.9c3.9-0.9,6.8,2.1,10.3-1.4c-3-0.9-5.3-1.6-7.9-2.3
			C300.2,430,299.7,430.9,298.4,432.9z M281.1,438.3c3.6,0,6,0,9,0C287,435.5,284.7,437.4,281.1,438.3z"/>
		<path class="st0" d="M690,550.4c1.7-3,13.9-0.4,14.3-4.4c-0.9-2.7-1.7-5-2.6-7.5c-1.5-0.4-6.5-1.1-7.8-1.5c-0.9-3,1.8-5.3,1-7.9
			c-1.6-0.4-2.8-0.8-3.9-0.8c-7-0.3-14-0.8-21-0.8c-13,0.1-30-1.1-44,0.7c-4.8,0.6-9.6,1.1-14.4,1.2c-12.8,0.3-25.6,0.4-38.5,0.5
			c-3.3,0-35.6-0.1-41.2,0.9c-0.3,0.1-4.8,1.9-6.8,1.8c-2.9-0.1-5.9-0.2-8.7-0.9c-2.8-0.7-4.1,1.7-5.6-1.4c-1.3-2.6-1.9-14.5-2.5-18
			c-3.4-2-4-2-3.9-5.6c0.3-6-1.1-15.4,0.5-13.9c0.4-6.1,0.7-32.6,1.3-38.5c1,19.8,4.6,64.9,4.6,68.8c2.2-2.3-1.3-78.1-0.4-82.4
			c1.7-1.3,7.7-3.5,10.5-5.1c1.5-0.8,3.5-1.1,5.3-0.9c3.7,0.4,7.5,1.2,10,1.6c2.8,2.4,4.9,4,7.2,6c0,0.3,0.3,1.1,0.3,1.9
			c0.1,5.5,0.1,10.9,0.3,16.4c0.1,4.1,0.7,8.3,0.3,12.3c-1,8.9,1.8,13.4,10.4,15.6c3.3-2.1,3.3-2.1,8.4-0.3
			c-0.4-8.6-0.8-16.5-1.2-24.5c-0.4-7.5,0.9-14.4,3.9-21.1c2.5,0,4.3,0,6.6,0c-2.8-5.4-4.3-10.5-4-16.4c0.3-5.8,1-10.9,4.3-16.1
			c-2.2-4.4,2.6-10.3-3.7-15.1c-4.8,5.1-4.2,12.5-7.5,18.5c-4.7-0.1-6.9-6-13.2-5.2c-6.8,1.7-15.4,3.7-24.2,5.9
			c-0.3-0.3-0.9-1.1-1.8-2.2c-10.8,0.6-25.2,1.3-36.4,1.9c1.1,2.5,1.8,4.2,2.5,5.7c-3.6,3.9-5.2,8.1-3.7,13.3
			c0.5,1.8,0.6,3.8,0.6,5.7c0.1,9.6,0,19.2,0.3,28.9c0.1,5.3,0.5,10.7-0.4,15.9c0,0.2,0,0.4,0,0.6c-0.1,4.7-3.6,47.3-4.4,51
			c-2,2.4-5.4,2-6,5.5c2.3,0.2,4.5,0.4,7.1,0.6c-0.5,1.6-0.9,2.7-1.2,3.7c-1.4,0.2-2.5,0.4-4.6,0.7c2.9,2,4.8,3.4,6.8,4.8
			c-0.8,1.1-1.4,1.9-2.5,3.3c1.7,0.7,3.2,1.7,4.6,1.7c5,0.2,10.1,0.6,15.1,0c14-1.8,27.9-2.9,42-2.1c5.6,0.3,11.3-1,16.9-1.1
			c14.9-0.4,29.8-0.5,44.7-0.7c6.3-0.1,12.5,0.1,18.8,0.1c4.4,0,8.8-0.5,13.1-0.2c6.7,0.5,21.7-0.5,27.8,0.5
			c3.6,0.6,7.1-0.1,10.4,2.5c-2.1,0-75.4,0.9-75.4,0.9c0,2.8,75.5,4.9,80.9,0.8c0,1.3,6.8,0.1,10.4,1.8c-0.1,0.9,9.4,0.9,9.4-0.1
			c2.3-0.4,4.5-0.9,7-1.3C706.1,551.3,692,553.7,690,550.4z M499.8,479.3c0,2.9-0.5,5.9-0.4,9c0.2,4.7,2.2,28.7,0.7,33.5
			c-0.1-1.4-1.9-23-3.1-22.6c-0.1-9.8-1.4-18.9,0.4-28.7c-1.3,0.8-2.7,13.4-3.5,13.9c-0.3-12.7-0.3-26.9,3.3-37.8
			c0.3,0.2,0.5,11.6,0.6,11.9C500.3,465.3,499.8,472.4,499.8,479.3z M542.4,537c3.2-1,6.4-2.6,9.8,0C548.9,537,545.6,537,542.4,537z
			 M590.9,539.4c-0.5-1.6-0.7-2.1-0.8-2.4c-10.5,0-21,0-31.5,0c3.6-2.1,4.2-2.3,8.3-2.3c11.1,0,22.3-0.1,33.4-0.1
			c2.1,0,4.2,0.1,6.3,0.5c0.8,0.1,1.5,1,3.2,2.4C602.9,539.5,596.9,537.4,590.9,539.4z M611.1,535.4c2.2,0.2,73.5-1,74.8,1.6
			C685.1,540.6,612.8,537.9,611.1,535.4z"/>
		<path class="st0" d="M257.4,439.4c1.8-0.1,3.6-0.2,5.5-0.3C261.2,441,259.5,442,257.4,439.4z"/>
		<path class="st0" d="M199.5,407c0.1,2.9,0.1,5.8,4.2,6.5c0.7-0.5,1.7-1.2,2.6-2c2.6-2.4,5.5-3,8.7-1.7c4.6,2,9,4.1,13.1,6
			c0.6,2.5,0.9,4.2,1.3,5.8c0.9,3,0.7,5.4-1.4,8.1c-4.2,5.3-4.5,12.1-5.7,18.4c-1.1,5.5-1.3,11.3-1.1,16.9c0.2,6.9,1,13.7,1.6,20.6
			c0.4,4.7,1,9.5,1.1,14.2c0,1.7-1.2,3.4-1.4,4.1c0.5,4,0.9,7,1.2,10c0,0.4-0.1,0.8-0.1,1.3c0.4,6.9,0.4,13.8,1.3,20.7
			c0.8,6.1,0.9,12-0.3,18c-6.5,4.8-9.3,4.8-17.1-0.3c-3-10.2-3.4-20.9-3.9-31.6c-0.8-17-1.8-33.9-2.8-50.9c0-0.3-0.4-0.6-0.9-1.3
			c-2.2,1.9-2,5-3.5,7c-1.5,1.9-3.5,3.3-5.6,5.3c1,0.9,2.8-0.8,3.9,0.2c-0.8,2.5-4.4,12.9-5.5,16.4c-0.9-1.9,0.4-8.3-0.2-9.5
			c-1.2,5.4-4.4,10.1-1.5,15.6c-6.4,13.5-13.7,26.9-9.3,42.1c-2.3,6.2-8.3,3-11.6,6c-6.1-5.9-11.8-11.6-12.2-20.8
			c-3.9-2.7-5.3-6.8-6.4-11.5c-1.5-6.3-3.9-12.4-6.5-18.3c-5.3-11.8-11.1-23.4-16.7-35.1c-0.5-1.1-1.3-2.1-2.3-3.8
			c-0.7,2.6-1.5,22.1-0.8,28.4c0.7,6.4,1.4,12.8,2.1,19.6c-1.5-0.2-2.2-0.2-3-0.3c-0.2,0.4-0.5,0.7-0.5,1.1c0,1.5-0.3,3.1,0.2,4.4
			c3.5,9.3,1.6,19.2,2.7,28.7c0.2,2-1.2,4.2-2,6.9c-6.4-0.5-12.9,1.5-19.4-2.7c-0.1-1.7-0.5-3.7-0.4-5.6c0.8-9.8,1.9-19.6,2.6-29.5
			c0.4-5.4,0.2-10.9,0-16.4c-0.3-12.3-1.2-24.7-0.8-37c0.4-11.6-2.2-22.9-1.5-34.4c0.2-2.5,0.2-5,0.3-7.7c1.3,0.2,2,0.4,2.9,0.5
			c0.7-1.5,1.3-3,2-4.5c6.3-2.2,12.6-4.5,18.5-6.6c2.6,0.7,4.8,1.3,6.6,1.8c1.1,7.7,2.3,15.1,3.2,22.7c0.6,5,0.5,10,1.5,14.9
			c0.9,4.7,2.6,9.3,4.4,13.7c3.2,7.7,6.9,15.3,10.4,22.9c3.4,7.4,6.9,14.8,10.5,22.2c0.4,0.8,1.4,1.3,2.8,2.4c1-2.1,1.9-3.7,2.5-5.4
			c2.9-7.8,6-15.6,8.5-23.6c2.1-6.6,3.2-13.5,5.2-20.1c4-13.2,8.4-26.4,12.7-39.6c1.4-4.3,2.9-8.6,4.4-12.9
			C198.7,407,199.1,407,199.5,407z M142.5,477c-1.5-8.2-2.3-9.1-6.8-7.6c1.3,3.5,1.9,7.4,4,10.2c1.5,2,2.8,3.8,3.7,6.2
			c0.7,2.1,11.3,21.8,14.9,22.5c-1.6-5-12.7-26.5-14.1-31.1C144,477.2,143.4,477.1,142.5,477z M114.8,516.5
			c1.4,7.3-1.7,14.1,4.3,20.4c0.3-5.2,3-9.6-1.4-13C117,521.6,119.4,518.8,114.8,516.5z M173.6,520.5c3.2-3.1,7.5-14.3,8.4-18
			c-1.9,0.2-4.2,1.1-8.4,7.4C173.5,512.8,173.8,516.8,173.6,520.5z M125.9,456.2c0.2,4,3.3,6.4,5.5,9.3
			C131.2,461.5,129.3,458.5,125.9,456.2z M220,520.9c1-2.7,1.5-34.4-1.4-37C217.8,487.1,218,518.6,220,520.9z M197.4,464
			c3.4-3.9,3.4-3.9,1.5-6.7C197.6,459.1,196.1,460.8,197.4,464z M123.2,453.4c0.5,0,0.9-0.1,1.4-0.1c0.2-2.9-0.1-5.7-2.5-8
			C122.4,447.9,122.8,450.6,123.2,453.4z M118.3,546.6c0.5,0,1.1,0,1.6,0c0.7-2.1,1.8-4.2-1.9-6.3
			C118.1,542.8,118.2,544.7,118.3,546.6z M214.9,445.2c-4.1,6.1-0.6,69.3-0.4,71.2c0.4,0,0.8-35.6,1.2-35.6
			C215.7,478.9,214.9,447.1,214.9,445.2z M115.2,508.3c0.8-2.1,2.2-4.2,2.2-6.2c-0.2-4.4-2.3-38.7-2.9-43.2c-0.8,6,0.1,41.8,0,47.7
			c0,0.5,0.6,1.1,0.9,1.6L115.2,508.3z"/>
	</g>
</g>
</svg>
